<svg width="44" height="44" viewBox="0 0 44 44" fill="none" xmlns="http://www.w3.org/2000/svg">
<mask id="mask0_738_564" style="mask-type:alpha" maskUnits="userSpaceOnUse" x="10" y="10" width="24" height="24">
<rect x="10" y="10" width="24" height="24" fill="#D9D9D9"/>
</mask>
<g mask="url(#mask0_738_564)">
<path d="M19.7 31.5L19.3 28.45C19.0333 28.3667 18.7626 28.2417 18.488 28.075C18.2126 27.9083 17.9583 27.7333 17.725 27.55L14.9 28.75L12.6 24.75L15.05 22.9C15.0166 22.75 14.996 22.6 14.988 22.45C14.9793 22.3 14.975 22.15 14.975 22C14.975 21.8667 14.9793 21.725 14.988 21.575C14.996 21.425 15.0166 21.2667 15.05 21.1L12.6 19.25L14.9 15.275L17.725 16.45C17.9583 16.2667 18.2126 16.096 18.488 15.938C18.7626 15.7793 19.0333 15.65 19.3 15.55L19.7 12.5H24.3L24.7 15.55C25 15.6667 25.2706 15.7957 25.512 15.937C25.754 16.079 26 16.25 26.25 16.45L29.1 15.275L31.4 19.25L28.925 21.125C28.9583 21.2917 28.975 21.4417 28.975 21.575V22C28.975 22.1333 28.9706 22.2707 28.962 22.412C28.954 22.554 28.9333 22.7167 28.9 22.9L31.35 24.75L29.05 28.75L26.25 27.55C26 27.75 25.746 27.925 25.488 28.075C25.2293 28.225 24.9666 28.35 24.7 28.45L24.3 31.5H19.7ZM22 25C22.8333 25 23.5416 24.7083 24.125 24.125C24.7083 23.5417 25 22.8333 25 22C25 21.1667 24.7083 20.4583 24.125 19.875C23.5416 19.2917 22.8333 19 22 19C21.1666 19 20.4583 19.2917 19.875 19.875C19.2916 20.4583 19 21.1667 19 22C19 22.8333 19.2916 23.5417 19.875 24.125C20.4583 24.7083 21.1666 25 22 25Z" fill="#ADADB3"/>
</g>
</svg>
