<svg width="60" height="18" viewBox="0 0 60 18" fill="none" xmlns="http://www.w3.org/2000/svg">
<path d="M10.5177 10.3301V6.87556L4.41566 7.54061V4.75109H11.6772V1.29652H0.385681V16.9991L4.41566 16.2232V10.9952L10.5177 10.3301ZM17.294 16.1863V0.908569H13.2641V16.9991L17.294 16.1863ZM31.5274 16.2232V5.6563H27.5733V6.52456C26.794 5.71172 25.7675 5.26835 24.5889 5.26835C21.5284 5.26835 19.0382 7.35587 19.0382 11.1614C19.0382 14.9485 21.5284 17.0915 24.5889 17.0915C25.9956 17.0915 26.965 16.6481 27.5733 15.5766V16.9991L31.5274 16.2232ZM25.2732 13.8216C24.0376 13.8216 22.9921 12.7132 22.9921 11.1614C22.9921 9.57271 24.0376 8.53819 25.2732 8.53819C26.5088 8.53819 27.5733 9.57271 27.5733 11.1614C27.5733 12.7132 26.5088 13.8216 25.2732 13.8216ZM45.7138 16.0385V10.6072C45.7138 7.20808 43.8128 5.17598 40.9804 5.26835C39.8399 5.3053 38.2241 5.76714 37.5965 6.57998V5.6563H33.6428V16.9991L37.5965 16.2232V11.0506C37.6538 9.64661 38.3952 8.85224 39.6878 8.72292C40.7903 8.63055 41.7598 9.3695 41.7598 10.9028V16.7959L45.7138 16.0385ZM59.6143 16.2232V0.908569H55.6604V6.33982C54.881 5.60088 53.8545 5.26835 52.6759 5.26835C49.6154 5.26835 47.1252 7.35587 47.1252 11.1614C47.1252 14.9485 49.6154 17.0915 52.6759 17.0915C53.8545 17.0915 54.881 16.7774 55.6604 16.057V16.9991L59.6143 16.2232ZM53.3603 13.8216C52.1247 13.8216 51.0791 12.7132 51.0791 11.1614C51.0791 9.57271 52.1247 8.53819 53.3603 8.53819C54.5959 8.53819 55.6604 9.57271 55.6604 11.1614C55.6604 12.7132 54.5959 13.8216 53.3603 13.8216Z" fill="#FF5C00"/>
</svg>
