<svg width="74" height="44" viewBox="0 0 74 44" fill="none" xmlns="http://www.w3.org/2000/svg">
<path d="M17.9218 23.3086V19.9098L11.9464 20.5641V17.8196H19.0573V14.4209H8V29.8699L11.9464 29.1065V23.9629L17.9218 23.3086ZM24.5576 29.0702V14.0392H20.6112V29.8699L24.5576 29.0702ZM38.4957 29.1065V18.7102H34.6237V19.5645C33.8605 18.7648 32.8552 18.3286 31.7011 18.3286C28.7041 18.3286 26.2655 20.3824 26.2655 24.1265C26.2655 27.8524 28.7041 29.9608 31.7011 29.9608C33.0786 29.9608 34.028 29.5245 34.6237 28.4704V29.8699L38.4957 29.1065ZM32.3713 26.7437C31.1613 26.7437 30.1375 25.6532 30.1375 24.1265C30.1375 22.5634 31.1613 21.5456 32.3713 21.5456C33.5812 21.5456 34.6237 22.5634 34.6237 24.1265C34.6237 25.6532 33.5812 26.7437 32.3713 26.7437ZM52.3878 28.9248V23.5812C52.3878 20.237 50.5263 18.2377 47.7526 18.3286C46.6357 18.3649 45.0535 18.8193 44.4389 19.619V18.7102H40.5672V29.8699L44.4389 29.1065V24.0174C44.495 22.6361 45.221 21.8546 46.4868 21.7273C47.5665 21.6365 48.5159 22.3635 48.5159 23.872V29.6699L52.3878 28.9248ZM66 29.1065V14.0392H62.1281V19.3827C61.3649 18.6557 60.3596 18.3286 59.2055 18.3286C56.2085 18.3286 53.7699 20.3824 53.7699 24.1265C53.7699 27.8524 56.2085 29.9608 59.2055 29.9608C60.3596 29.9608 61.3649 29.6518 62.1281 28.9429V29.8699L66 29.1065ZM59.8757 26.7437C58.6657 26.7437 57.6419 25.6532 57.6419 24.1265C57.6419 22.5634 58.6657 21.5456 59.8757 21.5456C61.0856 21.5456 62.1281 22.5634 62.1281 24.1265C62.1281 25.6532 61.0856 26.7437 59.8757 26.7437Z" fill="#ADADB3"/>
</svg>
