<svg width="44" height="44" viewBox="0 0 44 44" fill="none" xmlns="http://www.w3.org/2000/svg">
<mask id="mask0_738_559" style="mask-type:alpha" maskUnits="userSpaceOnUse" x="10" y="10" width="24" height="24">
<rect x="10" y="10" width="24" height="24" fill="#D9D9D9"/>
</mask>
<g mask="url(#mask0_738_559)">
<path d="M14.25 28.8748V27.3748H16.25V20.1248C16.25 18.7581 16.671 17.5538 17.513 16.5118C18.3543 15.4705 19.4333 14.7998 20.75 14.4998V13.7998C20.75 13.4498 20.871 13.1538 21.113 12.9118C21.3543 12.6705 21.65 12.5498 22 12.5498C22.35 12.5498 22.6457 12.6705 22.887 12.9118C23.129 13.1538 23.25 13.4498 23.25 13.7998V14.4998C24.5667 14.7998 25.646 15.4705 26.488 16.5118C27.3293 17.5538 27.75 18.7581 27.75 20.1248V27.3748H29.75V28.8748H14.25ZM22 31.7998C21.5 31.7998 21.075 31.6248 20.725 31.2748C20.375 30.9248 20.2 30.4998 20.2 29.9998H23.8C23.8 30.4998 23.625 30.9248 23.275 31.2748C22.925 31.6248 22.5 31.7998 22 31.7998Z" fill="#ADADB3"/>
<circle cx="31" cy="13" r="3" fill="#FF5C00"/>
</g>
</svg>
