<svg width="25" height="24" viewBox="0 0 25 24" fill="none" xmlns="http://www.w3.org/2000/svg">
<mask id="mask0_738_754" style="mask-type:alpha" maskUnits="userSpaceOnUse" x="0" y="0" width="25" height="24">
<rect x="0.333374" width="24" height="24" fill="#D9D9D9"/>
</mask>
<g mask="url(#mask0_738_754)">
<path d="M2.13342 19.3V17.075C2.13342 16.5583 2.26676 16.1 2.53342 15.7C2.80009 15.3 3.15842 14.9833 3.60842 14.75C4.55842 14.3 5.51276 13.946 6.47142 13.688C7.42942 13.4293 8.48342 13.3 9.63342 13.3C10.7834 13.3 11.8378 13.4293 12.7964 13.688C13.7544 13.946 14.7084 14.3 15.6584 14.75C16.1084 14.9833 16.4668 15.3 16.7334 15.7C17.0001 16.1 17.1334 16.5583 17.1334 17.075V19.3H2.13342ZM19.1334 19.3V16.95C19.1334 16.3 18.9708 15.679 18.6454 15.087C18.3208 14.4956 17.8668 13.9833 17.2834 13.55C17.9501 13.65 18.5834 13.804 19.1834 14.012C19.7834 14.2206 20.3584 14.4666 20.9084 14.75C21.4251 15.0333 21.8251 15.3626 22.1084 15.738C22.3918 16.1126 22.5334 16.5166 22.5334 16.95V19.3H19.1334ZM9.63342 11.7C8.66676 11.7 7.84176 11.354 7.15842 10.662C6.47509 9.97062 6.13342 9.14995 6.13342 8.19995C6.13342 7.23328 6.47509 6.40828 7.15842 5.72495C7.84176 5.04162 8.66676 4.69995 9.63342 4.69995C10.6001 4.69995 11.4251 5.04162 12.1084 5.72495C12.7918 6.40828 13.1334 7.23328 13.1334 8.19995C13.1334 9.14995 12.7918 9.97062 12.1084 10.662C11.4251 11.354 10.6001 11.7 9.63342 11.7ZM18.2584 8.19995C18.2584 9.14995 17.9168 9.97062 17.2334 10.662C16.5501 11.354 15.7251 11.7 14.7584 11.7C14.6584 11.7 14.5208 11.6873 14.3454 11.662C14.1708 11.6373 14.0251 11.6083 13.9084 11.575C14.3084 11.0916 14.6128 10.5626 14.8214 9.98795C15.0294 9.41262 15.1334 8.81662 15.1334 8.19995C15.1334 7.56662 15.0251 6.96662 14.8084 6.39995C14.5918 5.83328 14.2918 5.30828 13.9084 4.82495C14.0418 4.77495 14.1834 4.74162 14.3334 4.72495C14.4834 4.70828 14.6251 4.69995 14.7584 4.69995C15.7251 4.69995 16.5501 5.04162 17.2334 5.72495C17.9168 6.40828 18.2584 7.23328 18.2584 8.19995Z" fill="#ADADB3"/>
</g>
</svg>
